/vscmnt/brussel_pixiu_data/_data_brussel/112/vsc11236/PredSimResults/SUBJ11mtu3D/worker8.mot
version=1
nRows=9
nColumns=50
inDegrees=yes
endheader
                time	         pelvis_tilt	         pelvis_list	     pelvis_rotation	           pelvis_tx	           pelvis_ty	           pelvis_tz	       hip_flexion_r	     hip_adduction_r	      hip_rotation_r	        knee_angle_r	       ankle_angle_r	         mtp_angle_r	       hip_flexion_l	     hip_adduction_l	      hip_rotation_l	        knee_angle_l	       ankle_angle_l	         mtp_angle_l	    lumbar_extension	      lumbar_bending	     lumbar_rotation	 ercspn_r/activation	 intobl_r/activation	 extobl_r/activation	    abd_r/activation	    add_r/activation	hamstrings_r/activation	bifemsh_r/activation	glut_max_r/activation	iliopsoas_r/activation	rect_fem_r/activation	  vasti_r/activation	gastroc_r/activation	 soleus_r/activation	tib_ant_r/activation	 ercspn_l/activation	 intobl_l/activation	 extobl_l/activation	    abd_l/activation	    add_l/activation	hamstrings_l/activation	bifemsh_l/activation	glut_max_l/activation	iliopsoas_l/activation	rect_fem_l/activation	  vasti_l/activation	gastroc_l/activation	 soleus_l/activation	tib_ant_l/activation	
          0.00000000	         -3.79343123	         -0.67033321	          4.73713894	          0.00000000	          0.94106841	         -0.00448501	         31.69913877	         -2.26925162	         -4.15230048	        -10.15405587	          1.99857563	          0.26049264	        -13.24840120	         -2.79840298	         -3.26938779	        -11.88634725	         11.63757481	         29.77208405	        -14.34672043	         -2.00394720	         -4.33080437	          0.01801588	          0.20769438	          0.06055243	          0.00999999	          0.19592643	          0.03875162	          0.16185794	          0.08797950	          0.09278878	          0.04206062	          0.01333150	          0.01000000	          0.00999999	          0.40832259	          0.01000005	          0.01000000	          0.00999999	          0.03349824	          0.04333098	          0.01540797	          0.18842124	          0.02293273	          0.01000028	          0.01000008	          0.01000000	          0.14340392	          0.28568708	          0.01220622	
          0.01323740	         -3.89223446	         -0.71169521	          4.84495521	          0.01850493	          0.93908549	         -0.00333485	         31.37796474	         -2.15366857	         -4.27852001	        -11.33250312	          1.53812766	          0.21428048	        -13.89347346	         -3.03131846	         -3.55922227	        -12.49573780	         10.76395773	         31.50185833	        -13.89195534	         -1.52002493	         -4.52435913	          0.01475958	          0.17015437	          0.04960779	          0.05017671	          0.17504325	          0.05564497	          0.13260271	          0.10914787	          0.07601754	          0.03445831	          0.01092188	          0.01220623	          0.01220622	          0.45645644	          0.01000011	          0.00999999	          0.01000019	          0.02744355	          0.03549907	          0.02644059	          0.15436478	          0.01878772	          0.01000006	          0.01000000	          0.01000000	          0.11748418	          0.26238859	          0.00999999	
          0.02647479	         -3.97369642	         -0.74937363	          4.92856900	          0.03723877	          0.93747055	         -0.00212449	         31.03759470	         -2.05867562	         -4.42922738	        -12.52209295	          0.93683113	          0.20687193	        -14.35905405	         -3.27460088	         -3.85959465	        -13.45125118	          9.74993119	         33.28337591	        -13.42051925	         -1.03488272	         -4.70178745	          0.01618763	          0.13939958	          0.04064136	          0.10104861	          0.22725827	          0.04558738	          0.10863525	          0.12826722	          0.06227764	          0.02823010	          0.00999999	          0.01000000	          0.00999999	          0.52097014	          0.02670483	          0.00999999	          0.01000000	          0.02248323	          0.02908275	          0.02166157	          0.12646390	          0.01539191	          0.01000009	          0.01000002	          0.01000003	          0.09624934	          0.23734220	          0.00999999	
          0.03971219	         -4.03713939	         -0.77619107	          4.98585913	          0.05592531	          0.93639621	         -0.00085252	         30.81017992	         -1.98466992	         -4.61564325	        -13.90506263	          0.27579763	          0.16303598	        -14.54103386	         -3.52559631	         -4.16243005	        -14.89883221	          8.58357980	         35.09740637	        -12.96646532	         -0.55898360	         -4.85967763	          0.02641122	          0.11420360	          0.03329558	          0.13131153	          0.29055730	          0.04488999	          0.08899982	          0.13044029	          0.05102118	          0.02312761	          0.05031505	          0.00999999	          0.00999999	          0.56501101	          0.05633423	          0.00999999	          0.00999999	          0.01841946	          0.09431306	          0.02492259	          0.10360601	          0.01260988	          0.01000002	          0.01000001	          0.01024807	          0.07885261	          0.20191882	          0.00999999	
          0.05294959	         -4.08211865	         -0.79201048	          5.01878708	          0.07445159	          0.93595339	          0.00046359	         30.65708256	         -1.92226181	         -4.79772057	        -15.48396511	         -0.07628883	          0.10965884	        -14.36030757	         -3.78894632	         -4.46945201	        -16.96154500	          7.27492245	         36.85423986	        -12.53892570	         -0.09377295	         -4.99650162	          0.02163751	          0.09356171	          0.02727752	          0.15686566	          0.32655580	          0.04701811	          0.07291343	          0.14065277	          0.04179928	          0.01894738	          0.10028888	          0.01000000	          0.00999999	          0.57218874	          0.08775043	          0.00999999	          0.00999999	          0.01509021	          0.17132721	          0.03114693	          0.08487960	          0.01033069	          0.01000026	          0.01000000	          0.01000000	          0.06460029	          0.16542272	          0.00999999	
          0.06618698	         -4.11020981	         -0.79803350	          5.02520891	          0.09267468	          0.93624764	          0.00179707	         30.49168457	         -1.85362475	         -4.92581786	        -17.10914031	         -0.03820285	          0.06158589	        -13.73801284	         -4.06989821	         -4.79007834	        -19.74669035	          5.81836220	         38.39864129	        -12.14947561	          0.36236258	         -5.10729978	          0.01772662	          0.07665077	          0.02234721	          0.17238943	          0.35280374	          0.04802143	          0.05973459	          0.14359976	          0.03424421	          0.01552271	          0.12598188	          0.00999999	          0.00999999	          0.54050884	          0.10739433	          0.01000000	          0.01000000	          0.01236271	          0.22442687	          0.04413411	          0.06953792	          0.00999999	          0.01000117	          0.00999999	          0.00999999	          0.05292402	          0.13552315	          0.00999999	
          0.07942438	         -4.12228700	         -0.79105778	          5.00268363	          0.11048354	          0.93728883	          0.00311046	         30.25738084	         -1.77205868	         -4.97525568	        -18.66727208	          0.36803505	          0.03642333	        -12.63618403	         -4.37086620	         -5.15927901	        -23.30091022	          4.29860554	         39.33107505	        -11.80663721	          0.80870400	         -5.18733586	          0.01452260	          0.06279642	          0.01830803	          0.18026363	          0.36891417	          0.05189972	          0.04893779	          0.12973191	          0.02805470	          0.01271704	          0.14607921	          0.00999999	          0.00999999	          0.47398522	          0.10987966	          0.01000053	          0.00999999	          0.01012820	          0.26440032	          0.04726408	          0.05696921	          0.00999999	          0.01000003	          0.00999999	          0.00999999	          0.04335819	          0.11102783	          0.00999999	
          0.09266178	         -4.11914970	         -0.75843111	          4.94730684	          0.12783959	          0.93903255	          0.00436840	         29.88555661	         -1.68482616	         -4.94447500	        -20.01595494	          1.05589052	          0.08749262	        -11.05604483	         -4.69392625	         -5.58834185	        -27.61512344	          2.78071267	         39.25517498	        -11.51248445	          1.23426971	         -5.23119199	          0.01189770	          0.05144619	          0.01499892	          0.18331563	          0.34312249	          0.05554625	          0.04009247	          0.10904958	          0.02298391	          0.01041848	          0.19459550	          0.01000000	          0.00999999	          0.39617283	          0.10045385	          0.02200721	          0.01101185	          0.00999999	          0.29825475	          0.04037114	          0.04894466	          0.00999999	          0.01000002	          0.00999999	          0.00999999	          0.03552135	          0.09095995	          0.00999999	
          0.10589918	         -4.10383277	         -0.68344391	          4.85312722	          0.14470928	          0.94146446	          0.00553859	         29.27985220	         -1.60678329	         -4.85448761	        -20.95295987	          1.87779745	          0.27553253	         -9.04172071	         -5.03156693	         -6.06234984	        -32.52364434	          1.06598771	         38.21410848	        -11.27100345	          1.62195618	         -5.22945995	          0.01000001	          0.04214748	          0.01228792	          0.16490282	          0.28110450	          0.05905415	          0.03284591	          0.08933926	          0.01882965	          0.00999999	          0.23265215	          0.01000000	          0.00999999	          0.33095353	          0.08808041	          0.04856989	          0.04028545	          0.00999999	          0.29890606	          0.03307420	          0.05983786	          0.00999999	          0.01000002	          0.00999999	          0.00999999	          0.02910100	          0.07451926	          0.02981157	
